<svg width="557" height="551" viewBox="0 0 557 551" xmlns="http://www.w3.org/2000/svg">
<path d="M417.75 36.9138C460.088 61.0939 495.245 95.8725 519.689 137.754C544.132 179.635 557 227.143 557 275.504C557 323.864 544.131 371.372 519.687 413.253C495.243 455.134 460.085 489.912 417.747 514.092C375.409 538.272 327.383 551.001 278.496 551C229.608 550.999 181.583 538.269 139.245 514.088C96.9083 489.907 61.7515 455.127 37.3088 413.246C12.8661 371.364 -0.00124199 323.855 8.99144e-08 275.495L0.139252 266.569C1.69894 218.99 15.6948 172.623 40.7624 131.988C65.8299 91.3529 101.114 57.8365 143.174 34.7066C185.234 11.5766 232.635 -0.377717 280.756 0.0091084C328.877 0.395952 376.075 13.1107 417.75 36.9138ZM367.62 338.474C362.346 333.36 355.234 330.528 347.849 330.6C340.464 330.672 333.411 333.643 328.24 338.86C321.757 345.407 314.018 350.609 305.477 354.16C296.936 357.711 287.765 359.54 278.5 359.54C269.235 359.54 260.064 357.711 251.523 354.16C242.982 350.609 235.243 345.407 228.76 338.86C223.563 333.764 216.548 330.896 209.23 330.876C201.913 330.856 194.882 333.685 189.657 338.753C184.431 343.82 181.432 350.718 181.308 357.956C181.183 365.193 183.943 372.189 188.99 377.429C200.659 389.208 214.586 398.565 229.955 404.953C245.325 411.341 261.829 414.632 278.5 414.632C295.171 414.632 311.675 411.341 327.045 404.953C342.414 398.565 356.341 389.208 368.01 377.429C373.18 372.212 376.043 365.177 375.97 357.872C375.897 350.566 372.893 343.589 367.62 338.474ZM158.94 159.593C153.687 154.575 146.652 151.798 139.35 151.861C132.048 151.923 125.063 154.821 119.899 159.929C114.736 165.037 111.807 171.946 111.743 179.17C111.68 186.393 114.487 193.353 119.56 198.548L141.617 220.395L119.56 242.242C114.487 247.438 111.68 254.398 111.743 261.621C111.807 268.844 114.736 275.754 119.899 280.862C125.063 285.97 132.048 288.868 139.35 288.93C146.652 288.993 153.687 286.216 158.94 281.198L181.025 259.378L203.11 281.198C205.679 283.829 208.752 285.928 212.15 287.372C215.548 288.816 219.202 289.576 222.9 289.607C226.598 289.639 230.265 288.942 233.688 287.557C237.111 286.172 240.22 284.126 242.835 281.539C245.45 278.953 247.518 275.877 248.918 272.491C250.319 269.105 251.023 265.477 250.991 261.819C250.959 258.161 250.191 254.546 248.731 251.185C247.272 247.824 245.15 244.784 242.49 242.242L220.433 220.395L242.49 198.548C245.15 196.007 247.272 192.967 248.731 189.606C250.191 186.245 250.959 182.63 250.991 178.972C251.023 175.314 250.319 171.686 248.918 168.3C247.518 164.914 245.45 161.838 242.835 159.252C240.22 156.665 237.111 154.619 233.688 153.234C230.265 151.849 226.598 151.152 222.9 151.183C219.202 151.215 215.548 151.975 212.15 153.419C208.752 154.863 205.679 156.962 203.11 159.593L181.025 181.412L158.94 159.593ZM353.89 159.593C348.637 154.575 341.602 151.798 334.3 151.861C326.998 151.923 320.013 154.821 314.849 159.929C309.686 165.037 306.757 171.946 306.693 179.17C306.63 186.393 309.437 193.353 314.51 198.548L336.567 220.395L314.51 242.242C309.437 247.438 306.63 254.398 306.693 261.621C306.757 268.844 309.686 275.754 314.849 280.862C320.013 285.97 326.998 288.868 334.3 288.93C341.602 288.993 348.637 286.216 353.89 281.198L375.975 259.378L398.06 281.198C403.313 286.216 410.348 288.993 417.65 288.93C424.952 288.868 431.937 285.97 437.101 280.862C442.264 275.754 445.193 268.844 445.257 261.621C445.32 254.398 442.513 247.438 437.44 242.242L415.383 220.395L437.44 198.548C440.1 196.007 442.222 192.967 443.681 189.606C445.141 186.245 445.909 182.63 445.941 178.972C445.973 175.314 445.269 171.686 443.868 168.3C442.468 164.914 440.4 161.838 437.785 159.252C435.17 156.665 432.061 154.619 428.638 153.234C425.215 151.849 421.548 151.152 417.85 151.183C414.152 151.215 410.498 151.975 407.1 153.419C403.702 154.863 400.629 156.962 398.06 159.593L375.975 181.412L353.89 159.593Z"
fill="#ffffff"
stroke="rgba(255,255,255,0.25)"
stroke-width="6"
/>
</svg>